<svg xmlns="http://www.w3.org/2000/svg" viewBox="0 0 100 100" width="100" height="100">
  <defs>
    <linearGradient id="iconGradient" x1="0%" y1="0%" x2="100%" y2="100%">
      <stop offset="0%" style="stop-color:#00B4D8"/>
      <stop offset="100%" style="stop-color:#03045E"/>
    </linearGradient>
  </defs>
  
  <!-- Background -->
  <circle cx="50" cy="50" r="45" fill="url(#iconGradient)"/>
  
  <!-- Microscope -->
  <g fill="white" opacity="0.9">
    <!-- Base -->
    <rect x="42" y="75" width="16" height="12" rx="2"/>
    <rect x="40" y="85" width="20" height="4" rx="2"/>
    
    <!-- Body -->
    <rect x="45" y="65" width="10" height="12" rx="1"/>
    <rect x="47" y="60" width="6" height="8" rx="3"/>
    
    <!-- Lens -->
    <circle cx="50" cy="62" r="4"/>
    <circle cx="50" cy="62" r="2" fill="#00B4D8"/>
  </g>
  
  <!-- Cell -->
  <g transform="translate(50, 35)">
    <circle cx="0" cy="0" r="8" fill="rgba(255,255,255,0.8)"/>
    <circle cx="0" cy="0" r="4" fill="#00B4D8"/>
    
    <!-- Small elements -->
    <circle cx="-12" cy="-6" r="2" fill="rgba(255,255,255,0.6)"/>
    <circle cx="12" cy="6" r="2" fill="rgba(255,255,255,0.6)"/>
    <circle cx="10" cy="-8" r="1.5" fill="rgba(255,255,255,0.5)"/>
    <circle cx="-10" cy="8" r="1.5" fill="rgba(255,255,255,0.5)"/>
  </g>
  
  <!-- AI indicator -->
  <g transform="translate(50, 20)" fill="rgba(255,255,255,0.7)">
    <circle cx="-3" cy="0" r="1"/>
    <circle cx="0" cy="-2" r="1"/>
    <circle cx="3" cy="0" r="1"/>
    <line x1="-3" y1="0" x2="0" y2="-2" stroke="rgba(255,255,255,0.5)" stroke-width="1"/>
    <line x1="0" y1="-2" x2="3" y2="0" stroke="rgba(255,255,255,0.5)" stroke-width="1"/>
  </g>
</svg>